<svg xmlns="http://www.w3.org/2000/svg" viewBox="0 0 2048 2048">
    <defs>
        <style>.a{fill:#41b649;}.b{fill:#166734;}.c{fill:none;}</style>
    </defs>
    <title>logo</title>
    <path class="a"
          d="M858,24C720,24,608,136,608,274c0,3.29.09,6.56.21,9.82A12.11,12.11,0,0,0,608,286V512a12,12,0,0,0,12,12H846a12.13,12.13,0,0,0,2.19-.21c3.25.13,6.52.21,9.81.21,414.22,0,750,335.79,750,750,0,411-330.56,744.75-740.3,749.94,547.82-5.2,990.3-450.89,990.3-999.94C1858,471.75,1410.33,24,858,24Zm-62.5,125a62.5,62.5,0,1,1-62.5,62.5A62.5,62.5,0,0,1,795.54,149Z"/>
    <path class="b"
          d="M865,1949a168.75,168.75,0,0,0,168.75-168.75c0-2.22-.06-4.43-.15-6.63a7.88,7.88,0,0,0,.15-1.47V1619.57a8.13,8.13,0,0,0-8.1-8.1H873.06a8,8,0,0,0-1.48.14c-2.2-.08-4.4-.14-6.62-.14-279.6,0-506.25-226.65-506.25-506.25,0-277.41,223.12-502.7,499.7-506.21C488.63,602.53,190,903.36,190,1274,190,1646.76,492.16,1949,865,1949Zm42.18-84.37a42.19,42.19,0,1,1,42.19-42.19A42.18,42.18,0,0,1,907.14,1864.6Z"/>
    <rect class="c" width="2048" height="2048"/>
</svg>