<svg xmlns="http://www.w3.org/2000/svg" viewBox="0 0 2048 2048"><defs><style>.cls-1{fill:#991b1e;}</style></defs><title>logo</title><g id="Layer_2" data-name="Layer 2"><path class="cls-1" d="M1125.09,288.27c-11.46-2.87-23-5.23-34.77-7-14.56-2.22-29.19-4.33-44-5-5.8-.28-11.59-1.23-17.46-.92-1.26.07-2.89,0-2.15-2.19H933c.45,3-1.92,2.18-3.32,2.2-22,.41-43.69,3.16-65.44,6.53C841.6,285.36,819.48,290.39,798,298q-5.21,1.83-10.35,3.86c-25,9.9-48,23.15-65.47,44.27-14,16.85-21,35.81-20.58,58.21.85,41.7.46,83.43.29,125.15,0,5.39,1.13,6.95,6.78,6.93q33.6-.07,67.2-.11l98.65-.07c315.11,24.9,563.06,288.49,563.06,610,0,338-274,611.94-611.93,611.94H825a752.81,752.81,0,0,0,158.32,16.75c414.22,0,750-335.78,750-750C1733.29,659.15,1471.51,354.56,1125.09,288.27ZM824,465.66a51.15,51.15,0,1,1,51.69-51.31C875.77,442.62,852.24,466,824,465.66Z"/><path class="cls-1" d="M770.86,1696.71q12.89,3.22,26.07,5.26a322.23,322.23,0,0,0,33,3.77c4.36.21,8.7.92,13.1.69,1-.06,2.17,0,1.62,1.64h70.29c-.34-2.28,1.44-1.63,2.48-1.65,16.5-.31,32.77-2.37,49.08-4.9a275.12,275.12,0,0,0,49.66-12.08q3.9-1.37,7.76-2.89c18.77-7.43,36-17.37,49.11-33.21,10.46-12.64,15.78-26.85,15.44-43.66-.64-31.27-.35-62.57-.22-93.86,0-4-.85-5.21-5.09-5.2q-25.2.06-50.4.09l-74,0c-236.33-18.67-422.3-216.37-422.3-457.5,0-253.47,205.48-458.95,458.95-458.95H996a565.05,565.05,0,0,0-118.74-12.56c-310.66,0-562.5,251.84-562.5,562.5C314.71,1418.55,511.05,1647,770.86,1696.71Zm225.82-133a38.37,38.37,0,1,1-38.77,38.49A38.52,38.52,0,0,1,996.68,1563.66Z"/></g></svg>